<?xml version="1.0" encoding="utf-8"?>
<svg fill="#000000" width="800px" height="800px" viewBox="0 0 24 24" version="1.1" xmlns="http://www.w3.org/2000/svg">
  <title>linkedin</title>
  <path fill="#007aac" d="M22.54 7.6s-.2-1.5-.86-2.17c-.83-.87-1.75-.88-2.18-.93-3.04-.22-7.6-.2-7.6-.2s-4.56-.02-7.6.2c-.43.05-1.35.06-2.18.93-.65.67-.86 2.18-.86 2.18S1.04 9.4 1 11.18v1.66c.04 1.78.26 3.55.26 3.55s.2 1.5.86 2.18c.83.87 1.9.84 2.4.94 1.7.15 7.2.2 7.38.2 0 0 4.57 0 7.6-.22.43-.05 1.35-.06 2.18-.93.65-.67.86-2.18.86-2.18s.22-1.77.24-3.55v-1.66c-.02-1.78-.24-3.55-.24-3.55z"></path><path fill="#FAFAFA" d="M9.68 8.9v6.18l5.84-3.1"></path><path fill="#000" fill-opacity=".12" d="M9.68 8.88l5.13 3.48.73-.38"></path><path fill="#FFF" fill-opacity=".2" d="M22.54 7.6s-.2-1.5-.86-2.17c-.83-.87-1.75-.88-2.18-.93-3.04-.22-7.6-.2-7.6-.2s-4.56-.02-7.6.2c-.43.05-1.35.06-2.18.93-.65.67-.86 2.18-.86 2.18S1.04 9.4 1 11.18v.1c.04-1.76.26-3.54.26-3.54s.2-1.5.86-2.17c.83-.88 1.75-.88 2.18-.93 3.04-.22 7.6-.2 7.6-.2s4.56-.02 7.6.2c.43.05 1.35.05 2.18.93.65.66.86 2.17.86 2.17s.22 1.78.23 3.55v-.1c0-1.8-.23-3.56-.23-3.56z"></path><path fill="#007aac" fill-opacity=".2" d="M22.54 16.4s-.2 1.5-.86 2.17c-.83.87-1.75.88-2.18.93-3.04.22-7.6.2-7.6.2s-4.56.02-7.6-.2c-.43-.05-1.35-.06-2.18-.93-.65-.67-.86-2.18-.86-2.18s-.22-1.8-.26-3.57v-.1c.04 1.76.26 3.54.26 3.54s.2 1.5.86 2.17c.83.88 1.75.88 2.18.93 3.04.22 7.6.2 7.6.2s4.56.02 7.6-.2c.43-.05 1.35-.05 2.18-.93.65-.66.86-2.17.86-2.17s.22-1.78.23-3.55v.1c0 1.8-.23 3.56-.23 3.56z"></path><path fill="#FFF" fill-opacity=".2" d="M9.68 15.08v.1l5.84-3.08v-.12"></path><path fill="#007aac" fill-opacity=".2" d="M9.68 8.9v-.13l5.84 3.1v.1"></path>
</svg>
